<svg id="Layer_1" data-name="Layer 1" xmlns="http://www.w3.org/2000/svg" viewBox="0 0 512 512"><defs><style>.cls-1{fill:#f0f7ff;}.cls-2{fill:#e1eaf4;}.cls-3{fill:#ffc84d;}.cls-4{fill:#ffb232;}.cls-5{fill:#74c666;}.cls-6{fill:#6b287c;}</style></defs><title>snow-globe-filled</title><circle class="cls-1" cx="256" cy="234.67" r="202.67"/><path class="cls-2" d="M295.06,35.8A181.36,181.36,0,1,1,57.13,273.73C75.34,367,157.44,437.33,256,437.33c111.93,0,202.67-90.74,202.67-202.67C458.67,136.1,388.29,54,295.06,35.8Z"/><polygon class="cls-3" points="386.25 405.33 125.75 405.33 101.33 480 410.67 480 386.25 405.33"/><polygon class="cls-4" points="386.25 405.33 338.25 405.33 362.67 480 410.67 480 386.25 405.33"/><polygon class="cls-5" points="256 272 191.63 352 320.37 352 256 272"/><polygon class="cls-5" points="256 218.67 202.45 288 309.55 288 256 218.67"/><polygon class="cls-5" points="256 176 213.33 234.67 298.67 234.67 256 176"/><circle class="cls-6" cx="149.33" cy="282.67" r="10.67"/><circle class="cls-6" cx="208" cy="160" r="10.67"/><circle class="cls-6" cx="245.33" cy="96" r="10.67"/><circle class="cls-6" cx="144" cy="202.67" r="10.67"/><path class="cls-6" d="M256,21.33C138.37,21.33,42.67,117,42.67,234.67a212.93,212.93,0,0,0,75.78,162.91,10.64,10.64,0,0,0-2.83,4.44l-22,67.32H58.67a10.67,10.67,0,1,0,0,21.33h384a10.67,10.67,0,0,0,0-21.33H418.4l-22-67.32a10.64,10.64,0,0,0-2.7-4.32,214.07,214.07,0,0,0,41.52-47.26,10.67,10.67,0,0,0-17.92-11.58,192.07,192.07,0,0,1-55,55.82H266.67v-32h53.7a10.67,10.67,0,0,0,8.31-17.35l-37.53-46.65h18.4A10.67,10.67,0,0,0,318,281.48l-27.92-36.15h8.59a10.67,10.67,0,0,0,8.63-16.94l-42.67-58.67a10.67,10.67,0,0,0-17.26,0l-42.67,58.67a10.67,10.67,0,0,0,8.63,16.94h8.59L194,281.48a10.67,10.67,0,0,0,8.44,17.19h18.4l-37.53,46.65a10.67,10.67,0,0,0,8.31,17.35h53.7v32H150a192,192,0,0,1-86-160c0-105.87,86.13-192,192-192s192,86.13,192,192c0,5.39-.24,11-.71,16.6a10.67,10.67,0,0,0,21.26,1.78c.52-6.22.78-12.41.78-18.39C469.33,117,373.63,21.33,256,21.33Zm0,172.8L277.72,224H234.28Zm7.12,51.2,24.71,32H224.17l24.71-32Zm-14.88,53.33h15.53l34.33,42.67H213.91ZM396,469.33H116L133.49,416h245Z"/><path class="cls-6" d="M454.35,277.65a10.69,10.69,0,0,0-13.08,7.52,189.49,189.49,0,0,1-7.57,22.41,10.67,10.67,0,1,0,19.74,8.09,210.91,210.91,0,0,0,8.43-24.94A10.67,10.67,0,0,0,454.35,277.65Z"/><path class="cls-6" d="M21.33,469.33H10.67a10.67,10.67,0,1,0,0,21.33H21.33a10.67,10.67,0,1,0,0-21.33Z"/><path class="cls-6" d="M501.33,469.33H480a10.67,10.67,0,1,0,0,21.33h21.33a10.67,10.67,0,1,0,0-21.33Z"/><circle class="cls-6" cx="357.33" cy="272" r="10.67"/><circle class="cls-6" cx="309.33" cy="138.67" r="10.67"/><circle class="cls-6" cx="357.33" cy="192" r="10.67"/></svg>