<svg id="Layer_1" data-name="Layer 1" xmlns="http://www.w3.org/2000/svg" viewBox="0 0 512 512"><defs><style>.cls-1{fill:#f0f7ff;}.cls-2{fill:#e1eaf4;}.cls-3{fill:#74c666;}.cls-4{fill:#54af47;}.cls-5{fill:#f4536a;}.cls-6{fill:#6b287c;}</style></defs><title>snowman-filled</title><circle class="cls-1" cx="256" cy="149.33" r="96"/><path class="cls-2" d="M282,57a85.32,85.32,0,1,1-118.3,118.3A96,96,0,1,0,282,57Z"/><path class="cls-3" d="M204.67,10.67H307.33a2,2,0,0,1,2,2V69.33a0,0,0,0,1,0,0H202.67a0,0,0,0,1,0,0V12.67A2,2,0,0,1,204.67,10.67Z"/><path class="cls-4" d="M309.33,21.33v48H272V10.67h26.67A10.67,10.67,0,0,1,309.33,21.33Z"/><circle class="cls-5" cx="256" cy="160" r="10.67"/><circle class="cls-1" cx="256" cy="357.33" r="144"/><path class="cls-2" d="M308.06,223.08A133.32,133.32,0,1,1,121.74,409.39,144,144,0,1,0,308.06,223.08Z"/><path class="cls-5" d="M339.5,240a46.42,46.42,0,0,1-.34-42.67H172.84A46.42,46.42,0,0,1,172.5,240Z"/><polygon class="cls-5" points="314.67 277.33 272 277.33 250.67 197.33 293.33 197.33 314.67 277.33"/><circle class="cls-6" cx="229.33" cy="128" r="10.67"/><circle class="cls-6" cx="282.67" cy="128" r="10.67"/><path class="cls-6" d="M400.53,368A10.64,10.64,0,0,0,388,376.42c0,.17-.1.55-.12.72a136.09,136.09,0,0,1-3,14.64,10.67,10.67,0,1,0,20.61,5.48,156.89,156.89,0,0,0,3.52-16.9A10.66,10.66,0,0,0,400.53,368Z"/><path class="cls-6" d="M21.33,490.67H10.67a10.67,10.67,0,1,0,0,21.33H21.33a10.67,10.67,0,1,0,0-21.33Z"/><path class="cls-6" d="M101.33,490.67H58.67a10.67,10.67,0,1,0,0,21.33h42.67a10.67,10.67,0,1,0,0-21.33Z"/><path class="cls-6" d="M501.33,490.67h-32a10.67,10.67,0,0,0,0,21.33h32a10.67,10.67,0,1,0,0-21.33Z"/><path class="cls-6" d="M432,490.67H334a154,154,0,0,0,56.37-56.74,10.67,10.67,0,0,0-18.54-10.55c-27,47.48-81.5,73.93-135.62,65.82a133.42,133.42,0,0,1-86.93-211.85l0,0a10.64,10.64,0,0,0,1.69-2.22,134,134,0,0,1,25-24.41h77.83l7.84,29.41A10.67,10.67,0,0,0,272,288h42.67A10.67,10.67,0,0,0,325,274.59l-6.38-23.92H336a134,134,0,0,1,27.52,27.76,10.59,10.59,0,0,0,.87,1.21,132.63,132.63,0,0,1,24.17,62.79,10.66,10.66,0,1,0,21.2-2.37,153.79,153.79,0,0,0-23.38-66l39.41-39.41H464a10.67,10.67,0,1,0,0-21.33H447.08l19.13-19.12a10.67,10.67,0,1,0-15.08-15.08L432,198.25V181.33a10.67,10.67,0,1,0-21.33,0v38.25l-37.19,37.18A155.45,155.45,0,0,0,348,233.06a36,36,0,0,1-3.22-14.39,37.35,37.35,0,0,1,3.9-16.58c0-.06,0-.11.07-.17A106.44,106.44,0,0,0,337,80h4.36a10.67,10.67,0,1,0,0-21.33H320V21.33A21.36,21.36,0,0,0,298.67,0H213.33A21.36,21.36,0,0,0,192,21.33V58.67H170.67a10.67,10.67,0,1,0,0,21.33H175a106.38,106.38,0,0,0-11.85,121.8c0,.1.08.2.12.29a37.35,37.35,0,0,1,3.9,16.58A35.94,35.94,0,0,1,164,233a156.23,156.23,0,0,0-23,20.87l-34.3-34.3V181.33a10.67,10.67,0,0,0-21.33,0v16.92L66.21,179.13a10.67,10.67,0,1,0-15.08,15.08l19.13,19.13H53.33a10.67,10.67,0,0,0,0,21.33H91.58l36.13,36.13a155,155,0,0,0,49.76,219.87H138.67a10.67,10.67,0,1,0,0,21.33H432a10.67,10.67,0,1,0,0-21.33ZM187.44,229.33a53.45,53.45,0,0,0,1.09-10.67,58.21,58.21,0,0,0-1-10.67h54.93l5.69,21.33Zm92.75,37.33L264.55,208h20.59l15.64,58.67Zm32.71-37.33L307.22,208h17.24a58.21,58.21,0,0,0-1,10.67,53.45,53.45,0,0,0,1.09,10.67Zm-99.57-208h85.33V58.67H213.33Zm-7,58.67h99.3a85.17,85.17,0,0,1,27,106.67H179.29A85.17,85.17,0,0,1,206.36,80Z"/><circle class="cls-6" cx="256" cy="325.33" r="10.67"/><circle class="cls-6" cx="256" cy="368" r="10.67"/><circle class="cls-6" cx="256" cy="410.67" r="10.67"/></svg>