<svg id="Layer_1" data-name="Layer 1" xmlns="http://www.w3.org/2000/svg" viewBox="0 0 512 512"><defs><style>.cls-1{fill:#ea8849;}.cls-2{fill:#74c666;}.cls-3{fill:#dd6f31;}.cls-4{fill:#54af47;}.cls-5{fill:#fff;}.cls-6{fill:#e1eaf4;}.cls-7{fill:#6b287c;}</style></defs><title>tree-filled</title><rect class="cls-1" x="224" y="430.99" width="64" height="69.33"/><path class="cls-2" d="M397.87,431H114.13a21.34,21.34,0,0,1-17.81-33.07L168.8,287l.32-.48,39.2-59.95,29.81-45.65a21.38,21.38,0,0,1,35.73,0l42,64.27h.05l27,41.33.27.48h.05l72.48,110.93A21.34,21.34,0,0,1,397.87,431Z"/><rect class="cls-3" x="256" y="430.99" width="32" height="69.33"/><path class="cls-4" d="M393.12,363.41c-10.83,5.33-22.35,11.2-35.41,16l-31.57-48.32A26.68,26.68,0,0,0,303.79,319H147.89l20.91-32H343.2Z"/><path class="cls-2" d="M369.65,286.51H142.35A21.34,21.34,0,0,1,125,252.8l19.25-27.15,1.65-2.29L238.61,92.8a21.35,21.35,0,0,1,34.77,0L365.87,223l7.73,10.83L387,252.8A21.34,21.34,0,0,1,369.65,286.51Z"/><path class="cls-4" d="M365.87,223c-8.53,7.79-18.4,15.63-31.36,21l-7.2-10.13L319.57,223l-22.4-31.47a26.44,26.44,0,0,0-21.71-11.25h-99l22.72-32H312.8Z"/><path class="cls-2" d="M336.69,148.27a5.79,5.79,0,0,1-1,.05H176.27c-18,0-27.84-20.85-16.59-34.72.11-.16.21-.27.32-.43L178.77,91l61-71.84a21.35,21.35,0,0,1,32.53,0l54.56,64.27L352,113.17C363.57,126.77,354.24,147.57,336.69,148.27Z"/><path class="cls-4" d="M336.69,148.27a5.79,5.79,0,0,1-1,.05H287.95a5.79,5.79,0,0,0,1-.05c17.55-.69,26.88-21.49,15.31-35.09L279,83.47v-.05c15.84-2.19,32.21-2.88,47.79.05L352,113.17C363.57,126.77,354.24,147.57,336.69,148.27Z"/><path class="cls-5" d="M326.83,83.47C291.63,76.85,252.27,88.69,224,95,205.76,99,190.56,96.16,178.77,91l61-71.84a21.35,21.35,0,0,1,32.53,0Z"/><path class="cls-6" d="M326.83,83.47c-15.57-2.93-31.95-2.24-47.79-.05L232.11,28.16l7.63-9a21.35,21.35,0,0,1,32.53,0Z"/><path class="cls-5" d="M397.87,431H114.13a21.34,21.34,0,0,1-17.81-33.07l16.48-25.17a292.65,292.65,0,0,1,68.53-5.49c53.65,2,65.6,17.49,106.67,21.33,47.63,4.43,78.45-12.05,105.12-25.17l22.56,34.51A21.34,21.34,0,0,1,397.87,431Z"/><path class="cls-5" d="M369.65,286.51H142.35A21.34,21.34,0,0,1,125,252.8l19.25-27.15a272,272,0,0,1,69.12,2.67c51.73,8.8,65.81,27.09,101.33,21.33,23.47-3.84,38.77-15.25,51.2-26.61l7.73,10.83L387,252.8A21.34,21.34,0,0,1,369.65,286.51Z"/><path class="cls-6" d="M369.65,286.51H323.36a21.34,21.34,0,0,0,17.39-33.71l-6.24-8.8c13-5.33,22.83-13.17,31.36-21l7.73,10.83L387,252.8A21.34,21.34,0,0,1,369.65,286.51Z"/><path class="cls-6" d="M397.87,431H352a21.34,21.34,0,0,0,17.81-33.07l-12.11-18.51c13.07-4.8,24.59-10.67,35.41-16l22.56,34.51A21.34,21.34,0,0,1,397.87,431Z"/><path class="cls-7" d="M26.67,489.65h-16a10.67,10.67,0,1,0,0,21.33h16a10.67,10.67,0,0,0,0-21.33Z"/><path class="cls-7" d="M448,489.65H298.67v-48h99.2a32,32,0,0,0,26.74-49.57l-62-94.91h7.05a32,32,0,0,0,26.09-50.55L359.79,196a10.67,10.67,0,0,0-17.4,12.35l9.18,12.93c-10,8.05-21.9,15.1-38.62,17.83C295,242,283.69,238,266.49,231.89c-5.49-2-11.71-4.16-18.67-6.3a10.67,10.67,0,0,0-6.26,20.4c6.52,2,12.25,4,17.8,6,18.08,6.41,33.7,12,57,8.19,20.76-3.4,35.72-12.07,47.56-21.46l.89,1.25h0l13.5,19a10.53,10.53,0,0,1,.78,11.1,10.41,10.41,0,0,1-9.47,5.77H142.35a10.41,10.41,0,0,1-9.47-5.77,10.52,10.52,0,0,1,.78-11.1L150,235.91a260.67,260.67,0,0,1,56.68,2.16,10.67,10.67,0,0,0,3.2-21.09,276.33,276.33,0,0,0-44.3-3l39.06-55H307.32L321,178.18a10.67,10.67,0,1,0,17.4-12.35L333.49,159h2.24a32,32,0,0,0,24.41-52.71L335,76.57q-.31-.37-.66-.7L280.39,12.29a32,32,0,0,0-48.79,0l-13,15.26A10.67,10.67,0,1,0,234.9,41.36l13-15.25a10.93,10.93,0,0,1,16.27,0l38,44.76c-23.91.36-47.62,6-67.75,10.76-4.42,1-8.65,2.06-12.66,2.95a64.57,64.57,0,0,1-24.2.91L210.9,69.68a10.67,10.67,0,0,0-16.26-13.81l-42.77,50.4A32,32,0,0,0,176.27,159h2.25l-62.25,87.64a32,32,0,0,0,26.09,50.55h7.06l-5.91,9a10.67,10.67,0,1,0,17.86,11.67l13.54-20.71H337.11l40.5,62c-15.89,7.72-32.75,15.07-53.94,18.07a10.67,10.67,0,0,0,3,21.13c25.39-3.6,45.23-12.64,62.69-21.19l2.93,4.48h0l14.47,22.15a10.68,10.68,0,0,1-8.91,16.54H186.45a10.67,10.67,0,1,0,0,21.33h26.88v48h-80a10.67,10.67,0,0,0,0,21.33H448a10.67,10.67,0,1,0,0-21.33ZM166.57,131.46a10.53,10.53,0,0,1,1.57-11.39l13.92-16.41a80.43,80.43,0,0,0,24.87,3.92,89.16,89.16,0,0,0,19.39-2.19c4.1-.91,8.44-1.94,13-3,24.57-5.84,54.92-13,82-9l22.64,26.72a10.66,10.66,0,0,1-8.14,17.57H176.27A10.53,10.53,0,0,1,166.57,131.46ZM277.33,441.65v48H234.67v-48Z"/><path class="cls-7" d="M501.33,489.65h-16a10.67,10.67,0,0,0,0,21.33h16a10.67,10.67,0,1,0,0-21.33Z"/><path class="cls-7" d="M96,489.65H64A10.67,10.67,0,1,0,64,511H96a10.67,10.67,0,1,0,0-21.33Z"/><path class="cls-7" d="M160.21,431a10.67,10.67,0,0,0-10.67-10.67H114.14a10.68,10.68,0,0,1-8.9-16.56l12.08-18.49h0l1.91-2.91a280.89,280.89,0,0,1,61.68-4.45c28.66,1.08,44.9,6.22,60.61,11.18,12.93,4.09,26.3,8.32,45.46,10.11.33,0,.93,0,1.26,0a10.55,10.55,0,0,0,10.53-10.67A10.77,10.77,0,0,0,288.88,378c-16.83-1.58-28.53-5.28-40.91-9.2-16.27-5.15-34.7-11-66.23-12.17a304.29,304.29,0,0,0-46.9,1.87L141,349a10.67,10.67,0,1,0-17.86-11.66L87.41,392.05a32,32,0,0,0,26.73,49.6h35.41A10.67,10.67,0,0,0,160.21,431Z"/></svg>